# xmcd CD database file
#
# Track frame offsets:
#	150
#	3314
#	18185
#	21186
#	39728
#	43170
#	60986
#	78667
#	93557
#	111948
#
# Disc length: 1726 seconds
#
# Revision: 2
# Processed by: cddbd v1.5.1PL0 Copyright (c) Steve Scherf et al.
# Submitted via: CDex 1.51
#
DISCID=7606bc0a
DTITLE=真優 - まゆまゆ☆Include MOKO-CHAN
DYEAR=2005
DGENRE=Vocal
TTITLE0=おしゃべり その1 「モコちゃん参上☆」
TTITLE1=恋のTELコード818（はいぱ〜）
TTITLE2=おしゃべり その2 「てるみーぷりーず☆」
TTITLE3=恋するアリストテレス
TTITLE4=おしゃべり その3 「あでぃおす☆」
TTITLE5=スィーツ&ハーブス
TTITLE6=願い （from"GOTHIC〜The Age of Innocence〜"）
TTITLE7=恋のTELコード818（オリジナルカラオケ）
TTITLE8=恋するアリストテレス（オリジナルカラオケ）
TTITLE9=スィーツ&ハーブス（オリジナルカラオケ）
EXTD=YEAR: 2005
EXTT0=
EXTT1=
EXTT2=
EXTT3=
EXTT4=
EXTT5=
EXTT6=
EXTT7=
EXTT8=
EXTT9=
PLAYORDER=
